<svg width="186" height="211" viewBox="0 0 186 211" fill="none" xmlns="http://www.w3.org/2000/svg">
<path d="M135.35 84.7836L93.5808 60.1391L51.7642 84.7027L93.5355 106.887L135.35 84.7836Z" fill="#1CADD9"/>
<path d="M135.35 84.7836L93.5355 106.887L93.4875 156.587L135.304 132.023L135.35 84.7836Z" fill="#1A90B3"/>
<path d="M93.5355 106.887L51.7642 84.7027L51.7185 131.942L93.4875 156.587L93.5355 106.887Z" fill="#437C8D"/>
<path d="M185.031 62.688L161.909 75.9518L161.839 148.288L98.8688 184.641L98.8445 209.737L184.936 160.612L185.031 62.688Z" fill="#00328F" fill-opacity="0.78"/>
<path d="M85.5958 182.168L85.5692 209.724L1.04792 160.434L1.14265 62.5101L23.747 75.8182L23.6771 148.154L85.5958 182.168Z" fill="#466297"/>
<path d="M31.6268 62.5396L9.5131 50.2162L93.6379 1.08942L176.684 50.3779L153.563 62.6575L93.6117 28.1539L31.6268 62.5396Z" fill="#83A6E7"/>
<path d="M135.35 84.7836L93.5808 60.1391L51.7642 84.7027M135.35 84.7836L93.5355 106.887M135.35 84.7836L135.304 132.023L93.4875 156.587M51.7642 84.7027L93.5355 106.887M51.7642 84.7027L51.7185 131.942L93.4875 156.587M93.5355 106.887L93.4875 156.587M85.5958 182.168L85.5692 209.724L1.04792 160.434L1.14265 62.5101L23.747 75.8182L23.6771 148.154L85.5958 182.168ZM31.6268 62.5396L9.5131 50.2162L93.6379 1.08942L176.684 50.3779L153.563 62.6575L93.6117 28.1539L31.6268 62.5396ZM185.031 62.688L161.909 75.9518L161.839 148.288L98.8688 184.641L98.8445 209.737L184.936 160.612L185.031 62.688Z" stroke="#1CADD9"/>
</svg>
